<?xml version="1.0" encoding="UTF-8"?>
<svg width="18px" height="19px" viewBox="0 0 18 19" version="1.1" xmlns="http://www.w3.org/2000/svg" xmlns:xlink="http://www.w3.org/1999/xlink">
    <!-- Generator: sketchtool 56.3 (101010) - https://sketch.com -->
    <title>45ED171D-2644-4B22-9FE5-1E0D8E87624B</title>
    <desc>Created with sketchtool.</desc>
    <g id="Main" stroke="none" stroke-width="1" fill="none" fill-rule="evenodd">
        <g id="My-profile---Sign-up---Errors---not-valid" transform="translate(-123.000000, -215.000000)">
            <g id="Page-content" transform="translate(24.000000, 116.000000)">
                <g id="sign-up-with">
                    <g id="Group-3" transform="translate(0.000000, 80.000000)">
                        <g id="googleLogo" transform="translate(99.000000, 19.000000)">
                            <path d="M9.576,3.91550747 C10.992,3.91550747 12.26,4.41834106 13.26,5.39927872 L16,2.57599176 C14.336,0.980937661 12.164,0 9.576,0 C5.824,0 2.58,2.2174137 1,5.44873776 L4.192,8 C4.948,5.6548171 7.072,3.91550747 9.576,3.91550747 Z" id="Shape" fill="#EA4335" fill-rule="nonzero"></path>
                            <path d="M18,9.84459459 C18,9.20810811 17.9412533,8.59189189 17.8511749,8 L9,8 L9,11.6567568 L14.0678851,11.6567568 C13.8407311,12.8567568 13.1827676,13.8783784 12.1958225,14.5675676 L15.2232376,17 C16.9895561,15.3054054 18,12.8 18,9.84459459 L18,9.84459459 Z" id="Shape" fill="#4285F4" fill-rule="nonzero"></path>
                            <path d="M4,11.4160482 C3.81766382,10.8107607 3.71130104,10.1679035 3.71130104,9.5 C3.71130104,8.83209647 3.81386515,8.18923933 4,7.58395176 L0.968660969,5 C0.349477683,6.35250464 0,7.88033395 0,9.5 C0,11.119666 0.349477683,12.6474954 0.972459639,14 L4,11.4160482 Z" id="Shape" fill="#FBBC05" fill-rule="nonzero"></path>
                            <path d="M9.61676486,19 C12.2198715,19 14.4092126,18.1225541 16,16.6065911 L12.8947509,14.1349125 C12.0310659,14.7322348 10.9183182,15.0823893 9.61676486,15.0823893 C7.10203535,15.0823893 4.96893412,13.3439753 4.20567756,11 L1,13.5499485 C2.59078736,16.7837281 5.84868773,19 9.61676486,19 Z" id="Shape" fill="#34A853" fill-rule="nonzero"></path>
                            <polygon id="Shape" points="0 0 19 0 19 19 0 19"></polygon>
                        </g>
                    </g>
                </g>
            </g>
        </g>
    </g>
</svg>