<?xml version="1.0" encoding="UTF-8"?>
<svg width="25px" height="25px" viewBox="0 0 25 25" version="1.1" xmlns="http://www.w3.org/2000/svg" xmlns:xlink="http://www.w3.org/1999/xlink">
    <!-- Generator: sketchtool 56.3 (101010) - https://sketch.com -->
    <title>B7446E68-D174-4B45-874E-CA05BED65C54</title>
    <desc>Created with sketchtool.</desc>
    <g id="Main" stroke="none" stroke-width="1" fill="none" fill-rule="evenodd">
        <g id="My-profile---Sign-up---Errors---not-valid" transform="translate(-119.000000, -132.000000)" fill="#FFFFFF" fill-rule="nonzero">
            <g id="Page-content" transform="translate(24.000000, 116.000000)">
                <g id="sign-up-with">
                    <g id="Group-4">
                        <g id="Group-2-Copy">
                            <g id="Group" transform="translate(95.000000, 16.000000)">
                                <g id="facebookLogo">
                                    <path d="M23.6334743,0 L1.37794387,0 C0.613706094,0 0,0.613425926 0,1.37731481 L0,23.6226852 C0,24.3865741 0.613706094,25 1.37794387,25 L13.3625817,25 L13.3625817,15.3240741 L10.0972021,15.3240741 L10.0972021,11.5509259 L13.3510024,11.5509259 L13.3510024,8.77314815 C13.3510024,5.54398148 15.3194936,3.78472222 18.2027543,3.78472222 C19.5806982,3.78472222 20.7733723,3.88888889 21.1207531,3.93518519 L21.1207531,7.31481481 L19.1175238,7.31481481 C17.5543102,7.31481481 17.2416674,8.05555556 17.2416674,9.15509259 L17.2416674,11.5625 L20.9818008,11.5625 L20.4954677,15.3356481 L17.2532468,15.3356481 L17.2532468,25 L23.6218949,25 C24.3861327,25 25,24.3865741 25,23.6226852 L25,1.37731481 C25.0114182,0.613425926 24.3977121,0 23.6334743,0 Z" id="Shape"></path>
                                </g>
                            </g>
                        </g>
                    </g>
                </g>
            </g>
        </g>
    </g>
</svg>